<?xml version="1.0" encoding="UTF-8"?>
<svg width="20px" height="20px" viewBox="0 0 20 20" version="1.1" xmlns="http://www.w3.org/2000/svg" xmlns:xlink="http://www.w3.org/1999/xlink">
    <!-- Generator: Sketch 58 (84663) - https://sketch.com -->
    <title>标签角标</title>
    <desc>Created with Sketch.</desc>
    <g id="图标" stroke="none" stroke-width="1" fill="none" fill-rule="evenodd">
        <g id="商城图标" transform="translate(-630.000000, -722.000000)">
            <g id="角标" transform="translate(630.000000, 722.000000)">
                <path d="M0.155531817,0 L16.1016085,0 C17.1544297,0 20,0.397548406 20,4.82198744 L20,19.5 L0.155531817,0 Z" id="路径" fill="#EF6A00"></path>
                <path d="M9.25792122,6.15054967 C9.10595105,6.0033143 9.08948652,5.74800506 9.21083198,5.59343904 L9.25795255,5.53341834 C9.38391605,5.37297 9.61929032,5.33851369 9.78995551,5.46096372 L11.6607107,6.8032059 C11.8285644,6.92363866 12.0970195,6.91802742 12.2610041,6.790141 L17.4833928,2.71736421 C17.647072,2.58971591 17.8964866,2.59415173 18.0549579,2.74066083 L18.0078373,2.69709716 C18.1598248,2.83761183 18.1624551,3.06261029 18.0115334,3.2016526 L12.235953,8.52262372 C12.0860068,8.66076732 11.8438724,8.65593263 11.6892851,8.50616163 L9.25792122,6.15054967 Z" id="Fill-" fill="#FFFFFF"></path>
            </g>
        </g>
    </g>
</svg>
