<?xml version="1.0" encoding="UTF-8"?>
<svg id="_图层_2" data-name="图层 2" xmlns="http://www.w3.org/2000/svg" viewBox="0 0 155.19 161.93">
  <g id="_图层_1-2" data-name="图层 1">
    <path fill="#231815" stroke-width="0px" d="m90.07,43.78l-8.31-8.34c7.38-6.48,14.78-18.3,22.17-35.44l11.78,4.17c1.84,1.86,1.15,3.02-2.08,3.48l-4.85,8.34h45.03v11.12h-11.78c-3.7,13.44-9.01,23.87-15.93,31.27,6.93,5.56,16.63,11.12,29.1,16.68l-6.93,11.12c-7.86-2.78-17.79-9.26-29.79-19.46-9.7,7.88-20.56,13.67-32.56,17.37l-3.46-12.51h-10.39l-1.39,9.73,5.54,4.17c1.39,2.78.69,3.71-2.08,2.78l-13.86,13.21,13.86,8.34,27.71-25.71,9.7,9.04c.46,2.32-.69,3.02-3.46,2.08l-26.33,22.24,38.8-.69-13.86-9.73,9.7-6.25c15.24,8.81,26.33,16.92,33.26,24.32l-11.08,7.64-8.31-8.34-44.34,2.08v35.44h-13.86v-34.05l-56.81,2.08c-1.39,4.17-2.54,4.17-3.46,0l-2.08-12.51h54.73l-31.18-19.46,7.62-8.34,9.7,5.56,9.7-9.73h-9.7l-2.08-8.34h11.78l1.38-5.56H24.25l-2.08,12.51-11.08-1.39,4.85-29.19H.69v-8.34h15.93l2.08-14.59-10.39,8.34L0,29.19C11.08,21.32,19.4,11.81,24.94.69l12.47,4.17c1.84,1.86,1.15,3.02-2.08,3.48l-2.77,3.48h53.35v8.34H28.41l-8.31,8.34h56.81l-2.08,16.68h15.93v8.34h-16.63l-1.38,9.73h12.47v7.65c12.92-4.63,21.48-9.04,25.63-13.21-3.24-2.78-7.86-9.96-13.86-21.54l-6.93,7.64Zm-42.26,86.87l7.62,10.43c.92,2.32-.24,3.25-3.46,2.78-15.24,8.8-28.64,14.59-40.18,17.38l-6.24-13.21c17.08-4.63,31.18-10.42,42.26-17.38Zm-7.62-77.14h-13.16l-1.39,9.73h13.16l1.39-9.73Zm2.77-16.68h-13.86l-1.39,8.34h13.86l1.39-8.34Zm20.78,16.68h-13.16l-1.39,9.73h13.16l1.39-9.73Zm2.08-16.68h-12.47l-1.39,8.34h12.47l1.39-8.34Zm85.22,109.11l-5.54,12.51c-17.09-4.64-32.11-11.12-45.03-19.46l6.24-10.43c13.39,7.42,28.17,13.21,44.34,17.38ZM105.31,27.1c4.61,10.66,9.01,18.31,13.16,22.94,4.16-4.17,8.08-11.81,11.78-22.94h-24.94Z"/>
  </g>
</svg>
