<?xml version="1.0" standalone="no"?><!DOCTYPE svg PUBLIC "-//W3C//DTD SVG 1.1//EN"
        "http://www.w3.org/Graphics/SVG/1.1/DTD/svg11.dtd">
<svg t="1684985454310" class="icon" viewBox="0 0 1024 1024" version="1.1" xmlns="http://www.w3.org/2000/svg" p-id="4476"
     xmlns:xlink="http://www.w3.org/1999/xlink" width="200" height="200">
    <path d="M172.7 280h449.7v459.6H172.7z" p-id="4477"></path>
    <path d="M622.4 764.6H172.7c-13.8 0-25-11.2-25-25V280c0-13.8 11.2-25 25-25h449.7c13.8 0 25 11.2 25 25v459.6c0 13.8-11.2 25-25 25z m-424.7-50h399.7V305H197.7v409.6z"
          p-id="4478"></path>
    <path d="M171.9 639.5V224.2c0-57 46.6-103.6 103.6-103.6h474.9c57 0 103.6 46.6 103.6 103.6v415.2c0 57-46.6 103.6-103.6 103.6"
          p-id="4479"></path>
    <path d="M750.4 768c-13.8 0-25-11.2-25-25s11.2-25 25-25c43.3 0 78.6-35.3 78.6-78.6V224.2c0-43.3-35.3-78.6-78.6-78.6H275.5c-43.3 0-78.6 35.3-78.6 78.6v415.3c0 13.8-11.2 25-25 25s-25-11.2-25-25V224.2c0-70.9 57.7-128.6 128.6-128.6h474.9c70.9 0 128.6 57.7 128.6 128.6v415.2c0 70.9-57.7 128.6-128.6 128.6z"
          p-id="4480"></path>
    <path d="M171.9 848.7c-13.8 0-25-11.2-25-25V320.2c0-13.8 11.2-25 25-25s25 11.2 25 25v503.5c0 13.8-11.2 25-25 25z"
          p-id="4481"></path>
    <path d="M854.1 929.7H253.5c-58.3 0-105.8-47.5-105.8-105.8s47.5-105.8 105.8-105.8H755c13.8 0 25 11.2 25 25s-11.2 25-25 25H253.5c-30.8 0-55.8 25-55.8 55.8s25 55.8 55.8 55.8h600.6c13.8 0 25 11.2 25 25s-11.2 25-25 25z"
          p-id="4482"></path>
    <path d="M406.3 601h-0.8c-8.2-0.3-15.7-4.5-20.1-11.3l-105.1-161c-7.5-11.6-4.3-27.1 7.3-34.6s27.1-4.3 34.6 7.3l85.6 131.1L578.3 305c4.4-5.8 11-9.4 18.3-9.9 7.3-0.5 14.4 2.2 19.5 7.3l127.3 128.2c9.7 9.8 9.7 25.6-0.1 35.4s-25.6 9.7-35.4-0.1l-107-107.8L426.3 591c-4.7 6.3-12.1 10-20 10z"
          fill="#FFFFFF" p-id="4483"></path>
</svg>
