<?xml version="1.0" encoding="UTF-8"?>
<svg id="_图层_2" data-name="图层 2" xmlns="http://www.w3.org/2000/svg" viewBox="0 0 239 159.81">
    <path fill="#231815" stroke-width="0px" d="m238.91,159.33h-30.48v-58.8c0-12.44-.65-20.5-1.95-24.15-1.15-3.45-3.38-6.43-6.36-8.51-3.13-2.09-6.82-3.15-10.58-3.04-5.28,0-10,1.44-14.21,4.35-4.2,2.89-7.08,6.72-8.63,11.5-1.55,4.78-2.33,13.61-2.33,26.47v52.19h-30.48V44.11h28.32v16.93c10.05-13.03,22.71-19.53,37.97-19.53,6.74,0,12.87,1.21,18.44,3.63,5.57,2.43,9.79,5.51,12.64,9.28,2.86,3.76,4.86,8.03,5.97,12.81,1.11,4.78,1.68,11.61,1.68,20.51v71.6Zm-238.91,0V.28h117.93v26.9H32.11v35.27h79.85v26.81H32.11v43.27h88.87v26.8H0Zm0,0"/>
</svg>
