<?xml version="1.0" standalone="no"?><!DOCTYPE svg PUBLIC "-//W3C//DTD SVG 1.1//EN"
        "http://www.w3.org/Graphics/SVG/1.1/DTD/svg11.dtd">
<svg class="icon" width="200px" height="200.00px" viewBox="0 0 1024 1024" version="1.1"
     xmlns="http://www.w3.org/2000/svg">
    <path fill="#000000"
          d="M160 96h192c9.344 0.64 17.024 4.032 23.04 10.048 5.952 5.952 8.96 13.44 8.96 22.464a30.592 30.592 0 0 1-32 31.488h-192v192a31.168 31.168 0 0 1-8.96 23.04A31.168 31.168 0 0 1 128 384a31.168 31.168 0 0 1-23.04-8.96 31.168 31.168 0 0 1-8.96-23.04v-256h64z m0 832h-64v-256c0-9.344 3.008-17.024 8.96-23.04A31.168 31.168 0 0 1 128 640c9.344 0 17.024 3.008 23.04 8.96 5.952 6.016 8.96 13.696 8.96 23.04v192h192a30.528 30.528 0 0 1 32 31.488c0 8.96-3.008 16.512-8.96 22.464a34.944 34.944 0 0 1-23.04 10.048h-192z m704-832h64v256a31.168 31.168 0 0 1-8.96 23.04A31.168 31.168 0 0 1 896 384a31.168 31.168 0 0 1-23.04-8.96 31.168 31.168 0 0 1-8.96-23.04v-192h-192a31.168 31.168 0 0 1-23.04-8.96 30.528 30.528 0 0 1-8.96-22.528c0-8.96 3.008-16.512 8.96-22.464a34.944 34.944 0 0 1 23.04-10.048h192z m0 832h-192a34.752 34.752 0 0 1-23.04-9.984 30.592 30.592 0 0 1-8.96-22.528 30.592 30.592 0 0 1 32-31.488h192v-192c0-9.344 3.008-17.024 8.96-23.04A31.168 31.168 0 0 1 896 640c9.344 0 17.024 3.008 23.04 8.96 5.952 6.016 8.96 13.696 8.96 23.04v256h-64z"/>
</svg>
