<?xml version="1.0" standalone="no"?><!DOCTYPE svg PUBLIC "-//W3C//DTD SVG 1.1//EN"
        "http://www.w3.org/Graphics/SVG/1.1/DTD/svg11.dtd">
<svg t="1744525864173" class="icon" viewBox="0 0 1024 1024" version="1.1" xmlns="http://www.w3.org/2000/svg" p-id="9335" fill=""
     xmlns:xlink="http://www.w3.org/1999/xlink" width="200" height="200">
    <path d="M871.374 239.304c15.15-49.778 12.986-101.72-6.493-155.826l-19.478-16.232c-8.657-4.329-24.889-4.329-48.696 0-34.628 8.657-73.585 27.053-116.87 55.188-90.899-21.643-180.715-21.643-269.449 0C364.939 94.3 324.9 76.986 290.272 70.493c-21.642-2.164-36.792-1.082-45.449 3.246l-19.478 12.986c-19.478 45.449-23.807 96.309-12.986 152.58-36.792 43.285-55.188 95.227-55.188 155.826 0 93.063 27.053 165.565 81.159 217.507 36.792 36.792 89.816 61.681 159.072 74.667-15.15 28.135-20.56 57.353-16.232 87.652v12.985c-45.449 10.821-82.242 8.657-110.377-6.493-17.314-8.657-36.792-27.053-58.435-55.188l-3.246-6.493c-15.15-17.314-25.971-29.217-32.464-35.71-15.15-10.821-30.3-17.314-45.449-19.478-6.493-4.328-12.986-4.328-19.478 0-6.493 4.328-10.821 9.739-12.986 16.232-2.164 6.493-1.623 12.986 1.623 19.478s7.034 10.821 11.362 12.986c6.493 2.164 13.527 6.493 21.101 12.985 7.575 6.493 16.773 16.232 27.594 29.217l3.246 3.246c17.314 23.807 31.382 40.039 42.203 48.696 19.478 17.314 41.121 29.217 64.928 35.71 28.135 8.657 60.599 8.657 97.391 0v84.406c0 8.657 3.246 16.232 9.739 22.725 6.493 6.493 13.527 9.739 21.101 9.739s14.609-3.246 21.101-9.739c6.493-6.493 8.657-14.068 6.493-22.725v-152.58c-2.164-32.464 8.657-59.517 32.464-81.159l-16.232-48.696c-47.614-6.493-85.488-16.232-113.623-29.217-38.957-17.314-67.092-42.203-84.406-74.667-23.807-36.792-35.71-86.57-35.71-149.333 0-21.643 4.87-43.826 14.609-66.551s23.266-42.744 40.58-60.058l9.739-29.217c-15.15-34.628-16.232-72.502-3.246-113.623 23.807 0 63.845 17.314 120.116 51.942l22.725 6.493c88.734-23.807 177.469-23.807 266.203 0l22.725-6.493c41.121-28.135 80.077-46.531 116.87-55.188 12.986 38.957 11.903 75.749-3.246 110.377l6.493 32.464c34.628 36.792 51.942 78.995 51.942 126.609 0 62.763-11.903 113.623-35.71 152.58-19.478 32.464-47.614 56.271-84.406 71.42-28.135 12.985-66.01 22.725-113.623 29.217l-16.232 45.449c10.821 12.986 18.937 26.512 24.348 40.58 5.411 14.068 7.034 29.758 4.87 47.073V924.29c0 8.657 2.705 15.691 8.116 21.101s11.903 8.116 19.478 8.116c7.575 0 14.068-2.705 19.478-8.116s8.116-12.444 8.116-21.101V774.957c0-36.792-6.493-66.01-19.478-87.652 69.256-10.821 123.362-34.628 162.319-71.42 49.778-51.942 74.667-126.609 74.667-224-0.001-58.436-18.397-109.296-55.189-152.581z"
          p-id="9336"></path>
</svg>
