<svg width="24" height="24" viewBox="0 0 24 24" xmlns="http://www.w3.org/2000/svg">
<g id="ph:heart-light">
<path id="Vector" d="M12.0011 20.8125C11.9048 20.8126 11.8102 20.7879 11.7262 20.7408C10.0168 19.7395 8.41236 18.5688 6.93729 17.2463C3.70329 14.3357 2.0636 11.4351 2.0636 8.62503C2.06396 7.46198 2.43712 6.32966 3.12832 5.39428C3.81953 4.4589 4.79236 3.76971 5.90404 3.42786C7.01573 3.08602 8.20772 3.10953 9.30506 3.49493C10.4024 3.88034 11.3473 4.60735 12.0011 5.56925C12.6549 4.60735 13.5998 3.88034 14.6971 3.49493C15.7945 3.10953 16.9865 3.08602 18.0982 3.42786C19.2098 3.76971 20.1827 4.4589 20.8739 5.39428C21.5651 6.32966 21.9382 7.46198 21.9386 8.62503C21.9386 11.4351 20.2989 14.3357 17.0648 17.2463C15.5897 18.5688 13.9854 19.7395 12.2759 20.7408C12.1919 20.7878 12.0973 20.8125 12.0011 20.8125Z" fill="#F76A1C"/>
</g>
</svg>
