<?xml version="1.0" encoding="UTF-8"?>
<svg id="_图层_2" data-name="图层 2" xmlns="http://www.w3.org/2000/svg" viewBox="0 0 120.78 125.43">
  <g id="_图层_1-2" data-name="图层 1">
    <path fill="#231815" stroke-width="0px" d="m120.78,84.87c0,5.34-1.06,11-3.19,16.99-2.13,5.99-8.31,11.42-18.53,16.28-10.23,4.86-17.94,7.29-23.15,7.29-2.6,0-4.67-.51-6.21-1.51-1.54-1.01-3.55-2.97-6.03-5.87-2.48-2.91-3.72-4.77-3.72-5.6s1.06-1.25,3.19-1.25l9.4.36c4.73,0,10.05-.98,15.96-2.94,5.91-1.96,10.26-5.34,13.04-10.14,2.78-4.8,4.17-10.05,4.17-15.75,0-7.83-2.87-13.91-8.6-18.24-5.74-4.33-9.67-6.49-11.79-6.49-.71,0-1.18.42-1.42,1.25-6.27,17.79-16.35,32.47-30.24,44.04-13.9,11.57-24.51,17.35-31.84,17.35-5.56,0-10.58-2.91-15.08-8.72-4.5-5.81-6.74-12.57-6.74-20.28,0-9.25,3.19-17.88,9.58-25.89,6.38-8.01,15.37-14.56,26.96-19.66.47-.12.77-.36.89-.71.12-.36.24-1.42.35-3.2l1.06-13.17c0-1.07-.59-1.6-1.77-1.6l-8.16.18c-3.55,0-7.8-.27-12.77-.8-4.97-.53-8.01-1.1-9.13-1.69-1.12-.59-1.95-1.6-2.48-3.02-.53-1.42-1.21-2.99-2.04-4.71-.83-1.72-1.24-2.87-1.24-3.47,0-1.18.74-1.78,2.22-1.78s3.64.53,6.47,1.6c2.84,1.07,6.27,1.6,10.29,1.6l18.98-.18c.71,0,1.21-.27,1.51-.8.29-.53.71-2.22,1.24-5.07.53-2.85,1.3-5.1,2.31-6.76,1-1.66,2.66-2.49,4.97-2.49s4.14,1.04,5.5,3.11c1.36,2.08,2.04,4.54,2.04,7.38l-.18,3.02c0,1.07.59,1.6,1.77,1.6,3.43,0,10.11-.56,20.04-1.69,9.93-1.13,15.08-1.69,15.43-1.69,3.9,0,5.85,1.25,5.85,3.74,0,1.66-.8,3.23-2.39,4.71-1.6,1.48-6.77,2.82-15.52,4-8.75,1.19-17.38,2.02-25.9,2.49-.59,0-1.01.15-1.24.44-.24.3-.65,2.34-1.24,6.14-.59,3.8-.89,6.08-.89,6.85s.71,1.1,2.13.98c2.95-.47,5.73-.71,8.34-.71s5.68.18,9.22.53c1.06,0,1.71-.65,1.95-1.96.71-3.32,1.54-5.57,2.48-6.76.94-1.18,2.31-1.78,4.08-1.78,5.2,0,7.8,3.14,7.8,9.43l-.35,3.56c0,.59.41,1.07,1.24,1.42,9.1,3.32,16.61,8.72,22.52,16.19,5.91,7.47,8.87,15.42,8.87,23.84Zm-80.88,12.45v-.36c-1.66-7.12-2.48-17.91-2.48-32.38,0-1.3-.56-1.96-1.69-1.96s-3.96,1.96-8.51,5.87c-4.55,3.91-7.83,8.1-9.84,12.54-2.01,4.45-3.02,8.87-3.02,13.25,0,7.36,2.95,11.03,8.87,11.03,1.65,0,3.52-.36,5.59-1.07,2.07-.71,4.31-1.78,6.74-3.2,2.42-1.42,3.75-2.31,3.99-2.67.24-.36.35-.71.35-1.07Zm13.12-11.39c.59,0,1.77-1.07,3.55-3.2,1.77-2.14,3.55-4.57,5.32-7.29,1.77-2.73,3.61-6.43,5.5-11.12,1.89-4.68,2.84-7.47,2.84-8.36s-.21-1.42-.62-1.6c-.42-.18-1.51-.27-3.28-.27s-4.46.24-8.07.71c-3.61.48-5.59,1.1-5.94,1.87-.35.77-.53,3.91-.53,9.43s.09,10.08.27,13.7c.18,3.62.32,5.55.44,5.78.12.24.29.36.53.36Z"/>
  </g>
</svg>
