<?xml version="1.0" standalone="no"?><!DOCTYPE svg PUBLIC "-//W3C//DTD SVG 1.1//EN"
        "http://www.w3.org/Graphics/SVG/1.1/DTD/svg11.dtd">
<svg fill="" t="1695039336225" class="icon" viewBox="0 0 1024 1024" version="1.1" xmlns="http://www.w3.org/2000/svg"
     p-id="17305" xmlns:xlink="http://www.w3.org/1999/xlink" width="200" height="200">
    <path d="M454.7 763.4v68.9h56.6v-68.9h36.8c16 0 28.3-12.3 28.3-28.3s-12.3-28.3-28.3-28.3H205.5c-47.2 0-84.9-37.7-84.9-84.9V276.5c0-47.2 37.7-84.9 84.9-84.9h556.7c44.3 0 81.1 34 84.9 78.3v25.5c0 16 12.3 28.3 28.3 28.3s28.3-12.3 28.3-28.3v-30.2C897.2 192.5 835.9 135 762.3 135H205.5C127.2 135 64 198.2 64 276.5v345.3c0 78.3 63.2 141.5 141.5 141.5h249.2z m283 68.9H228.2c-16 0-28.3 12.3-28.3 28.3s12.3 28.3 28.3 28.3h509.5c16 0 28.3-12.3 28.3-28.3 0-16.1-12.2-28.3-28.3-28.3z m0 0"
          p-id="17306" fill=""></path>
    <path d="M946.3 473.7L901 462.4c-0.9-1.9-1.9-2.8-1.9-4.7l23.6-39.6c4.7-7.6 3.8-17-2.8-22.6l-50-51c-6.6-6.6-16-7.6-23.6-2.8l-40.6 25.5-8.5-38.7c-1.9-8.5-9.4-14.2-17.9-14.2h-70.8c-8.5 0-16 5.7-17.9 14.2l-8.5 36.8-42.5-26.4c-9.4-3.8-18.9-1.9-25.5 3.8l-51 51c-6.6 6.6-7.5 16-2.8 23.6l26.4 43.4-55.7 13.2c-8.5 1.9-14.2 9.4-14.2 17.9v71.7c0 8.5 5.7 16 14.2 17.9l54.7 13.2-25.5 42.5c-4.7 7.6-3.8 17 2.8 23.6l50 50c6.6 6.6 16 7.6 23.6 2.8l37.7-22.6 12.3 51.9c1.9 8.5 9.4 14.2 17.9 14.2h71.7c8.5 0 16-5.7 17.9-14.2l12.3-52.8 38.7 23.6c7.5 4.7 17 3.8 23.6-2.8l49.1-50c5.7-6.6 7.5-16 2.8-22.6L898 600.5c0.9-2.8 1.9-5.7 3.8-7.6l43.4-10.4c8.5-1.9 14.2-9.4 14.2-17.9v-71.7c1-9.8-4.7-17.3-13.1-19.2z m-23.6 75.5l-38.7 9.4c-6.6 1.9-11.3 6.6-13.2 12.3-2.8 7.5-5.7 15.1-9.4 21.7-2.8 5.7-2.8 13.2 0.9 18.9l20.8 34-28.3 29.3-35.9-21.8c-5.7-3.8-12.3-3.8-17.9-0.9-4.7 1.9-9.4 3.8-13.2 5.7-5.7 1.9-10.4 7.5-12.3 13.2l-13.2 49h-42.5l-12.3-51.9c-1.9-5.7-5.7-11.3-11.3-13.2-3.8-0.9-7.6-2.8-10.4-4.7-5.7-2.8-12.3-2.8-17.9 0.9l-37.7 22.6-29.3-29.3 22.6-37.7c3.8-5.7 3.8-12.3 0.9-17.9-2.8-4.7-4.7-10.4-6.6-15.1-1.9-5.7-7.6-10.4-13.2-12.3l-50-12.3v-42.5l51.9-12.3c5.7-1.9 11.3-5.7 13.2-11.3 1.9-4.7 3.8-9.4 6.6-14.2 2.8-5.7 2.8-13.2-0.9-18.9l-24.5-40.6 29.3-29.3 44.3 27.4c5.7 2.8 11.3 3.8 17 0.9l8.5-2.8h0.9c5.7-1.9 10.4-7.6 12.3-13.2l9.4-39.6h39.6l8.5 38.7c1.9 6.6 6.6 11.3 12.3 14.2 3.8 0.9 8.5 2.8 11.3 4.7 5.7 2.8 12.3 1.9 17-0.9L851 385l29.3 29.3-21.7 35.9c-3.8 5.7-3.8 13.2 0 18.9 3.8 5.7 6.6 12.3 8.5 18.9 1.9 5.7 7.6 10.4 13.2 12.3l40.6 9.4v39.6h1.8z m0 0"
          p-id="17307" fill=""></path>
    <path d="M738.7 441.6c-51.9 0-94.4 42.5-94.4 94.4 0 51.9 42.5 94.4 94.4 94.4 51.9 0 94.4-42.5 94.4-94.4-0.1-51.9-41.6-94.4-94.4-94.4z m0 151c-31.1 0-56.6-25.5-56.6-56.6s25.5-56.6 56.6-56.6 56.6 25.5 56.6 56.6c0.9 31.1-24.6 56.6-56.6 56.6z m0 0"
          p-id="17308" fill=""></path>
</svg>
