<?xml version="1.0" standalone="no"?><!DOCTYPE svg PUBLIC "-//W3C//DTD SVG 1.1//EN" "http://www.w3.org/Graphics/SVG/1.1/DTD/svg11.dtd"><svg t="1692279566346" class="icon" viewBox="0 0 1024 1024" version="1.1" xmlns="http://www.w3.org/2000/svg" p-id="4645" xmlns:xlink="http://www.w3.org/1999/xlink" width="200" height="200"><path d="M676.5 348.9c-0.6-74.3-51.5-138.7-123.6-156.5-72.1-17.8-147.1 15.4-182.3 80.8-35.2 65.4-21.6 146.3 33 196.6-97.2 32.2-164.1 121.6-167.6 224 0 17.2 13.9 31.1 31.1 31.1 17.2 0 31.1-13.9 31.1-31.1 0-96.8 89.6-175.2 206.1-179.2h22.4c38.5-0.5 76.2 10.1 108.9 30.5l7.2 4.9c52 30 84.9 84.7 86.9 144.7 0 17.2 13.9 31.1 31.1 31.1 17.2 0 31.1-13.9 31.1-31.1-0.5-83.5-45.1-160.6-117.4-202.5h-2.2c-13.8-10-28.9-18.1-44.8-24.2 32.2-31.2 49.9-74.3 49-119.1z m-162.7-84.2c46.5 0 84.2 37.7 84.2 84.2s-37.7 84.2-84.2 84.2-84.2-37.7-84.2-84.2 37.7-84.2 84.2-84.2z m0 0" p-id="4646"></path><path d="M839.5 81h-52.4c-18.6 0-33.6 15-33.6 33.6s15 33.6 33.6 33.6h52.4c30.8 0 55.8 24.8 56 55.6v508.5c-0.2 30.8-25.2 55.6-56 55.6H188.1c-30.8 0-55.8-24.8-56-55.6V203.7c0.2-30.8 25.2-55.6 56-55.6h427.4c18.6 0 33.6-15 33.6-33.6s-15-33.6-33.6-33.6H188.1c-67.5 0.5-122.1 55.2-122.3 122.8v508.5C66.1 780.1 121.2 835 189 835h291.2v44.8H331.5c-18.6 0-33.6 15-33.6 33.6s15 33.6 33.6 33.6h365.6c12 0 23.1-6.4 29.1-16.8s6-23.2 0-33.6c-6-10.4-17.1-16.8-29.1-16.8H547.4V835h292.1c67.5-0.5 122.1-55.2 122.3-122.8V203.7c-0.2-67.5-54.7-122.2-122.3-122.7z m0 0" p-id="4647"></path></svg>