<?xml version="1.0" standalone="no"?><!DOCTYPE svg PUBLIC "-//W3C//DTD SVG 1.1//EN" "http://www.w3.org/Graphics/SVG/1.1/DTD/svg11.dtd"><svg t="1691844861197" class="icon" viewBox="0 0 1024 1024" version="1.1" xmlns="http://www.w3.org/2000/svg" p-id="1485" xmlns:xlink="http://www.w3.org/1999/xlink" width="200" height="200"><path d="M128 384c0-106 86-192 192-192a192.52 192.52 0 0 1 25.91 1.75c-0.23 0.55-0.49 1.1-0.72 1.66a319.79 319.79 0 0 0 68.54 350.86c1.13 1.14 2.27 2.25 3.41 3.36A191.06 191.06 0 0 1 320 576c-106 0-192-86-192-192z m171 256H192C86.13 640 0 726.13 0 832a64.07 64.07 0 0 0 64 64h128v-32a287.42 287.42 0 0 1 84.35-203.65A293.18 293.18 0 0 1 299 640z m659.42 65.61A222.53 222.53 0 0 0 800 640H480a224 224 0 0 0-224 224v32a64.07 64.07 0 0 0 64 64h640a64.07 64.07 0 0 0 64-64v-32a222.53 222.53 0 0 0-65.61-158.39zM896 320c0 141.38-114.62 256-256 256S384 461.38 384 320 498.62 64 640 64s256 114.62 256 256z" fill="#5C5C66" p-id="1486"></path></svg>